<svg width="17" height="16" viewBox="0 0 17 16" fill="none" xmlns="http://www.w3.org/2000/svg">
<path d="M7.5689 0.713143C7.79465 -0.233168 9.1388 -0.239437 9.37407 0.704724L10.4646 5.08094C10.5749 5.52362 10.9902 5.82084 11.4448 5.78235L15.9899 5.39757C16.9728 5.31436 17.3913 6.61832 16.5433 7.12208L12.7162 9.39569C12.313 9.63524 12.1517 10.1379 12.3402 10.5675L14.1165 14.6154C14.5097 15.5114 13.4297 16.3277 12.6748 15.7051L9.12687 12.7789C8.78096 12.4936 8.28075 12.4959 7.93773 12.7845L4.41941 15.7436C3.67087 16.3732 2.58269 15.567 2.9668 14.6674L4.70225 10.6031C4.88645 10.1718 4.72011 9.67066 4.31448 9.43487L0.464657 7.19708C-0.388352 6.70125 0.0169742 5.39344 1.00071 5.46748L5.54945 5.80985C6.00435 5.84409 6.41669 5.54301 6.52254 5.09933L7.5689 0.713143Z" fill="#B87651"/>
</svg>
