<svg width="11" height="10" viewBox="0 0 11 10" fill="none" xmlns="http://www.w3.org/2000/svg">
<path d="M3.787 1.27692C4.27388 -0.418786 6.67319 -0.428085 7.1806 1.26377L7.2316 1.43383C7.43995 2.12853 8.10238 2.58649 8.82533 2.53564L9.47508 2.48994C11.0277 2.38072 11.6028 4.48994 10.2081 5.17836C9.49292 5.53138 9.2108 6.40526 9.58394 7.11176L9.62556 7.19055C10.3602 8.58146 8.74263 10.0224 7.44491 9.13311L6.5391 8.51239C5.92805 8.09366 5.12231 8.09678 4.51637 8.52022L3.61812 9.14794C2.33125 10.0472 0.696312 8.61891 1.41402 7.22238L1.45468 7.14326C1.81924 6.4339 1.52653 5.56226 0.807084 5.21479C-0.595894 4.53721 -0.0463844 2.42364 1.5075 2.52081L2.15777 2.56148C2.8813 2.60673 3.53815 2.14365 3.73806 1.44737L3.787 1.27692Z" fill="#B87651"/>
</svg>
