<svg width="29" height="29" viewBox="0 0 29 29" fill="none" xmlns="http://www.w3.org/2000/svg">
<path d="M15.7849 0.43291V2.4004C17.7309 2.4004 19.554 2.89228 21.2542 3.87602C22.8724 4.83928 24.163 6.13044 25.1257 7.74953C26.109 9.45059 26.6006 11.2746 26.6006 13.2216H28.5671C28.5671 10.9057 27.9833 8.75377 26.8157 6.76578C25.689 4.83928 24.163 3.31242 22.2374 2.18521C20.2505 1.01701 18.0996 0.43291 15.7849 0.43291ZM5.61441 3.38415C5.06133 3.38415 4.57995 3.55836 4.17027 3.90677L1.00544 7.13469L1.09762 7.0732C0.58551 7.50359 0.247519 8.03645 0.0836443 8.67179C-0.0597459 9.30713 -0.0187773 9.92197 0.20655 10.5163C0.780111 12.1149 1.54827 13.7545 2.51104 15.4351C3.863 17.751 5.47102 19.8312 7.33509 21.6757C10.3258 24.6884 14.0437 27.0658 18.4888 28.8079H18.5195C19.1136 29.0128 19.7076 29.0538 20.3017 28.9308C20.9162 28.8079 21.459 28.5414 21.9302 28.1315L25.0335 25.0266C25.4432 24.6167 25.6481 24.1146 25.6481 23.5202C25.6481 22.9054 25.4432 22.393 25.0335 21.9831L21.0084 17.9252C20.5987 17.5153 20.0866 17.3103 19.4721 17.3103C18.8575 17.3103 18.3454 17.5153 17.9357 17.9252L16 19.8927C14.4432 19.1548 13.0912 18.2428 11.9441 17.1566C10.7969 16.0499 9.88539 14.7075 9.20941 13.1294L11.1759 11.1619C11.6061 10.711 11.8212 10.1782 11.8212 9.56331C11.8212 8.92798 11.5753 8.41561 11.0837 8.02621L11.1759 8.11843L7.05855 3.90677C6.64887 3.55836 6.16749 3.38415 5.61441 3.38415ZM15.7849 4.3679V6.33539C17.0344 6.33539 18.1815 6.64281 19.2262 7.25765C20.2914 7.8725 21.1313 8.71278 21.7458 9.77851C22.3603 10.8237 22.6676 11.9714 22.6676 13.2216H24.6341C24.6341 11.623 24.2347 10.1372 23.4358 8.76402C22.6369 7.43186 21.5717 6.36613 20.2402 5.56684C18.8678 4.76755 17.3827 4.3679 15.7849 4.3679ZM5.61441 5.35164C5.67586 5.35164 5.74756 5.38239 5.8295 5.44387L9.85466 9.56331C9.87515 9.64529 9.85466 9.71702 9.79321 9.77851L6.8742 12.6683L7.08928 13.2831L7.48873 14.1439C7.81647 14.8407 8.19543 15.517 8.62561 16.1729C9.21965 17.0951 9.87515 17.8842 10.5921 18.54C11.5549 19.4828 12.7122 20.3435 14.0642 21.1223C14.7402 21.5117 15.3137 21.7987 15.7849 21.9831L16.3994 22.2598L19.3799 19.2778C19.4208 19.2368 19.4516 19.2163 19.4721 19.2163C19.4925 19.2163 19.5233 19.2368 19.5642 19.2778L23.7123 23.428C23.7533 23.469 23.7738 23.4997 23.7738 23.5202C23.7738 23.5202 23.7533 23.5407 23.7123 23.5817L20.6397 26.6252C20.189 27.0146 19.6974 27.117 19.1648 26.9326C14.986 25.3135 11.5037 23.1001 8.71778 20.2923C6.9971 18.5707 5.4915 16.6135 4.20099 14.4206C3.2792 12.8425 2.56225 11.3156 2.05014 9.83999V9.80925C1.9682 9.6248 1.95796 9.4096 2.01941 9.16366C2.08087 8.89723 2.19353 8.69229 2.3574 8.54882L5.39932 5.44387C5.46078 5.38239 5.53247 5.35164 5.61441 5.35164ZM15.7849 8.30289V10.2704C16.6042 10.2704 17.3007 10.5573 17.8743 11.1312C18.4478 11.705 18.7346 12.4018 18.7346 13.2216H20.7011C20.7011 12.3403 20.4758 11.5206 20.0251 10.7623C19.595 10.0039 19.0009 9.4096 18.243 8.97921C17.4851 8.52833 16.6657 8.30289 15.7849 8.30289Z" fill="black"/>
</svg>
