<svg width="19" height="17" viewBox="0 0 19 17" fill="none" xmlns="http://www.w3.org/2000/svg">
<path d="M6.5412 2.20557C7.38216 -0.723387 11.5264 -0.73945 12.4029 2.18285L12.491 2.47659C12.8508 3.67652 13.995 4.46755 15.2438 4.37972L16.3661 4.30077C19.0479 4.11213 20.0413 7.75532 17.6322 8.94441C16.3969 9.55418 15.9096 11.0636 16.5541 12.2839L16.626 12.42C17.8949 14.8225 15.1009 17.3114 12.8594 15.7753L11.2948 14.7032C10.2394 13.9799 8.84764 13.9853 7.80102 14.7167L6.2495 15.801C4.02671 17.3543 1.20273 14.8872 2.44241 12.475L2.51264 12.3383C3.14233 11.1131 2.63675 9.60751 1.39406 9.00734C-1.02926 7.83698 -0.0801015 4.18626 2.60387 4.35411L3.72707 4.42435C4.9768 4.5025 6.11135 3.70264 6.45666 2.49998L6.5412 2.20557Z" fill="#B87651"/>
</svg>
