<svg width="19" height="16" viewBox="0 0 19 16" fill="none" xmlns="http://www.w3.org/2000/svg">
<path d="M6.5459 2.17994C7.40625 -0.71549 11.501 -0.730824 12.3976 2.15803L12.5018 2.49376C12.8618 3.65359 13.972 4.41526 15.1825 4.33297L16.4573 4.24633C19.0664 4.069 20.0076 7.62725 17.6492 8.75212C16.4234 9.33675 15.9418 10.8314 16.5945 12.0255L16.6762 12.175C17.9438 14.4942 15.2646 16.9546 13.0606 15.4952L11.2542 14.2991C10.2172 13.6124 8.87002 13.6175 7.84164 14.3119L6.0503 15.5215C3.86476 16.9973 1.15476 14.5571 2.39324 12.2285L2.47306 12.0784C3.11072 10.8795 2.6104 9.38848 1.37735 8.81305C-0.99508 7.7059 -0.0985735 4.14076 2.51259 4.29855L3.78841 4.37564C4.99995 4.44885 6.1005 3.6789 6.44592 2.51643L6.5459 2.17994Z" fill="#B87651"/>
</svg>
