<svg width="19" height="17" viewBox="0 0 19 17" fill="none" xmlns="http://www.w3.org/2000/svg">
<path d="M6.54114 2.20557C7.38211 -0.723388 11.5264 -0.739451 12.4028 2.18286L12.4909 2.47659C12.8508 3.67652 13.995 4.46756 15.2437 4.37972L16.366 4.30078C19.0478 4.11214 20.0412 7.75533 17.6322 8.94443C16.3969 9.5542 15.9095 11.0636 16.5541 12.2839L16.6259 12.42C17.8948 14.8225 15.1009 17.3114 12.8594 15.7754L11.2948 14.7032C10.2393 13.98 8.84759 13.9854 7.80097 14.7168L6.24945 15.801C4.02666 17.3543 1.20267 14.8872 2.44235 12.475L2.51258 12.3384C3.14227 11.1131 2.63669 9.60752 1.394 9.00736C-1.02933 7.83699 -0.0801637 4.18627 2.60382 4.35411L3.72701 4.42435C4.97675 4.50251 6.1113 3.70264 6.45661 2.49998L6.54114 2.20557Z" fill="#B87651"/>
</svg>
