<svg width="19" height="17" viewBox="0 0 19 17" fill="none" xmlns="http://www.w3.org/2000/svg">
<path d="M6.54119 2.20559C7.38216 -0.723393 11.5265 -0.739456 12.4029 2.18287L12.491 2.47661C12.8509 3.67655 13.9951 4.46759 15.2438 4.37975L16.3661 4.30081C19.048 4.11217 20.0414 7.75538 17.6323 8.94449C16.397 9.55426 15.9097 11.0637 16.5542 12.284L16.6261 12.4201C17.8949 14.8226 15.101 17.3115 12.8594 15.7755L11.2948 14.7033C10.2394 13.9801 8.84765 13.9854 7.80102 14.7169L6.24949 15.8011C4.02668 17.3544 1.20268 14.8873 2.44237 12.4751L2.5126 12.3384C3.14229 11.1132 2.63671 9.60759 1.39401 9.00742C-1.02933 7.83704 -0.0801642 4.1863 2.60383 4.35414L3.72704 4.42438C4.97678 4.50254 6.11134 3.70267 6.45665 2.5L6.54119 2.20559Z" fill="#B87651"/>
</svg>
