<svg width="19" height="17" viewBox="0 0 19 17" fill="none" xmlns="http://www.w3.org/2000/svg">
<path d="M6.54118 2.20557C7.38214 -0.723387 11.5264 -0.73945 12.4028 2.18285L12.4909 2.47659C12.8508 3.67652 13.995 4.46755 15.2437 4.37972L16.366 4.30077C19.0479 4.11213 20.0412 7.75532 17.6322 8.94441C16.3969 9.55418 15.9096 11.0636 16.5541 12.2839L16.626 12.42C17.8948 14.8225 15.1009 17.3114 12.8594 15.7753L11.2948 14.7032C10.2394 13.9799 8.84763 13.9853 7.801 14.7167L6.24949 15.801C4.0267 17.3543 1.20271 14.8872 2.4424 12.475L2.51262 12.3383C3.14231 11.1131 2.63673 9.60751 1.39405 9.00734C-1.02928 7.83698 -0.080117 4.18626 2.60386 4.35411L3.72705 4.42435C4.97678 4.5025 6.11134 3.70264 6.45665 2.49998L6.54118 2.20557Z" fill="#B87651"/>
</svg>
