<svg width="11" height="10" viewBox="0 0 11 10" fill="none" xmlns="http://www.w3.org/2000/svg">
<path d="M3.78698 1.27692C4.27386 -0.418786 6.67316 -0.428085 7.18058 1.26377L7.23158 1.43383C7.43993 2.12852 8.10236 2.58649 8.8253 2.53564L9.47506 2.48993C11.0277 2.38072 11.6028 4.48993 10.2081 5.17835C9.4929 5.53138 9.21078 6.40525 9.58392 7.11175L9.62553 7.19055C10.3601 8.58145 8.74261 10.0224 7.44489 9.1331L6.53907 8.51238C5.92803 8.09365 5.12229 8.09677 4.51635 8.52022L3.61811 9.14793C2.33123 10.0472 0.696296 8.6189 1.41401 7.22237L1.45466 7.14325C1.81922 6.43389 1.52652 5.56225 0.807068 5.21479C-0.595909 4.53721 -0.0463997 2.42364 1.50748 2.52081L2.15775 2.56148C2.88128 2.60672 3.53813 2.14365 3.73804 1.44737L3.78698 1.27692Z" fill="#B87651"/>
</svg>
