<svg width="11" height="10" viewBox="0 0 11 10" fill="none" xmlns="http://www.w3.org/2000/svg">
<path d="M3.78701 1.27695C4.27389 -0.418755 6.67319 -0.428054 7.18061 1.2638L7.23161 1.43386C7.43996 2.12855 8.10239 2.58652 8.82534 2.53567L9.47509 2.48997C11.0277 2.38075 11.6028 4.48996 10.2081 5.17839C9.49293 5.53141 9.21081 6.40528 9.58395 7.11178L9.62556 7.19058C10.3602 8.58148 8.74264 10.0224 7.44492 9.13313L6.5391 8.51241C5.92806 8.09368 5.12232 8.0968 4.51638 8.52025L3.61814 9.14796C2.33126 10.0472 0.696327 8.61893 1.41404 7.2224L1.4547 7.14328C1.81925 6.43393 1.52655 5.56228 0.807099 5.21482C-0.595878 4.53724 -0.0463691 2.42367 1.50751 2.52084L2.15778 2.56151C2.88131 2.60675 3.53816 2.14368 3.73807 1.4474L3.78701 1.27695Z" fill="#B87651"/>
</svg>
