<svg width="17" height="16" viewBox="0 0 17 16" fill="none" xmlns="http://www.w3.org/2000/svg">
<path d="M7.5689 0.713158C7.79465 -0.233152 9.1388 -0.239421 9.37407 0.70474L10.4646 5.08096C10.5749 5.52363 10.9902 5.82085 11.4448 5.78237L15.9899 5.39759C16.9728 5.31437 17.3913 6.61833 16.5433 7.1221L12.7162 9.3957C12.313 9.63526 12.1517 10.1379 12.3402 10.5675L14.1165 14.6154C14.5097 15.5114 13.4297 16.3277 12.6748 15.7051L9.12687 12.7789C8.78096 12.4936 8.28075 12.496 7.93773 12.7845L4.41941 15.7436C3.67087 16.3732 2.58269 15.567 2.9668 14.6675L4.70225 10.6032C4.88645 10.1718 4.72011 9.67067 4.31448 9.43489L0.464657 7.19709C-0.388352 6.70126 0.0169742 5.39346 1.00071 5.4675L5.54945 5.80987C6.00435 5.84411 6.41669 5.54303 6.52254 5.09934L7.5689 0.713158Z" fill="#B87651"/>
</svg>
