<svg width="19" height="17" viewBox="0 0 19 17" fill="none" xmlns="http://www.w3.org/2000/svg">
<path d="M6.54118 2.20557C7.38215 -0.723386 11.5264 -0.739448 12.4028 2.18285L12.4909 2.47659C12.8508 3.67651 13.995 4.46754 15.2437 4.37971L16.366 4.30077C19.0478 4.11213 20.0412 7.75531 17.6322 8.9444C16.3969 9.55417 15.9096 11.0636 16.5541 12.2839L16.626 12.42C17.8948 14.8225 15.1009 17.3113 12.8594 15.7753L11.2948 14.7032C10.2394 13.9799 8.84763 13.9853 7.801 14.7167L6.24949 15.8009C4.02671 17.3543 1.20273 14.8872 2.44241 12.475L2.51264 12.3383C3.14232 11.1131 2.63674 9.60749 1.39406 9.00733C-1.02926 7.83696 -0.0801014 4.18625 2.60387 4.3541L3.72706 4.42434C4.97679 4.50249 6.11134 3.70263 6.45665 2.49997L6.54118 2.20557Z" fill="#B87651"/>
</svg>
