<svg width="17" height="16" viewBox="0 0 17 16" fill="none" xmlns="http://www.w3.org/2000/svg">
<path d="M7.56889 0.713142C7.79464 -0.233168 9.13879 -0.239437 9.37406 0.704724L10.4646 5.08094C10.5749 5.52361 10.9902 5.82083 11.4448 5.78235L15.9898 5.39757C16.9728 5.31435 17.3913 6.61832 16.5433 7.12208L12.7162 9.39568C12.313 9.63524 12.1517 10.1379 12.3402 10.5675L14.1165 14.6154C14.5097 15.5114 13.4297 16.3277 12.6748 15.7051L9.12686 12.7789C8.78095 12.4936 8.28074 12.4959 7.93772 12.7844L4.4194 15.7436C3.67086 16.3732 2.58268 15.567 2.96679 14.6674L4.70225 10.6031C4.88644 10.1718 4.7201 9.67066 4.31447 9.43487L0.464649 7.19708C-0.38836 6.70124 0.0169663 5.39344 1.0007 5.46748L5.54944 5.80985C6.00434 5.84409 6.41668 5.54301 6.52253 5.09933L7.56889 0.713142Z" fill="#B87651"/>
</svg>
