<svg width="11" height="10" viewBox="0 0 11 10" fill="none" xmlns="http://www.w3.org/2000/svg">
<path d="M3.78701 1.27692C4.27389 -0.418786 6.67319 -0.428085 7.18061 1.26377L7.23161 1.43383C7.43996 2.12852 8.10239 2.58649 8.82534 2.53564L9.47509 2.48993C11.0277 2.38072 11.6028 4.48993 10.2081 5.17835C9.49293 5.53138 9.21081 6.40525 9.58395 7.11175L9.62556 7.19055C10.3602 8.58145 8.74264 10.0224 7.44492 9.1331L6.5391 8.51238C5.92806 8.09365 5.12232 8.09677 4.51638 8.52022L3.61814 9.14793C2.33126 10.0472 0.696327 8.6189 1.41404 7.22237L1.4547 7.14325C1.81925 6.43389 1.52655 5.56225 0.807099 5.21479C-0.595878 4.53721 -0.0463691 2.42364 1.50751 2.52081L2.15778 2.56148C2.88131 2.60672 3.53816 2.14365 3.73807 1.44737L3.78701 1.27692Z" fill="#B87651"/>
</svg>
