<svg width="6" height="6" viewBox="0 0 6 6" fill="none" xmlns="http://www.w3.org/2000/svg">
<path d="M0 3.00799C0 2.59402 0.0779551 2.20425 0.233865 1.83866C0.395152 1.47308 0.6102 1.15589 0.87901 0.887075C1.14782 0.612888 1.46233 0.39784 1.82254 0.24193C2.18812 0.0806437 2.5752 0 2.9838 0C3.39776 0 3.78754 0.0806437 4.15312 0.24193C4.5187 0.39784 4.8359 0.612888 5.10471 0.887075C5.3789 1.15589 5.59395 1.47308 5.74986 1.83866C5.91114 2.20425 5.99179 2.59402 5.99179 3.00799C5.99179 3.42196 5.91114 3.81173 5.74986 4.17732C5.59395 4.53752 5.3789 4.85203 5.10471 5.12084C4.8359 5.38965 4.5187 5.6047 4.15312 5.76599C3.78754 5.9219 3.39776 5.99985 2.9838 5.99985C2.5752 5.99985 2.18812 5.9219 1.82254 5.76599C1.46233 5.6047 1.14782 5.38965 0.87901 5.12084C0.6102 4.85203 0.395152 4.53752 0.233865 4.17732C0.0779551 3.81173 0 3.42196 0 3.00799Z" fill="#DB3D63"/>
</svg>
