<svg width="11" height="10" viewBox="0 0 11 10" fill="none" xmlns="http://www.w3.org/2000/svg">
<path d="M3.787 1.27696C4.27388 -0.418755 6.67319 -0.428055 7.1806 1.2638L7.2316 1.43386C7.43995 2.12856 8.10238 2.58652 8.82533 2.53567L9.47508 2.48997C11.0277 2.38076 11.6028 4.48997 10.2081 5.17839C9.49292 5.53141 9.2108 6.40529 9.58394 7.11179L9.62556 7.19058C10.3602 8.58149 8.74263 10.0224 7.44491 9.13314L6.5391 8.51242C5.92805 8.09369 5.12231 8.09681 4.51637 8.52026L3.61812 9.14797C2.33125 10.0473 0.696312 8.61894 1.41402 7.22241L1.45468 7.14329C1.81924 6.43393 1.52653 5.56229 0.807084 5.21482C-0.595894 4.53724 -0.0463844 2.42367 1.5075 2.52085L2.15777 2.56151C2.8813 2.60676 3.53815 2.14368 3.73806 1.4474L3.787 1.27696Z" fill="#B87651"/>
</svg>
